# xmcd
#
# Track frame offsets:
#  182
#  20560
#  40797
#  61375
#
# Disc length: 1074 seconds
#
# Revision: 0
# Processed by: cddbd v1.5.1PL0 Copyright (c) Steve Scherf et al.
# Submitted via: Collectorz.com_Music_Collector 6.9
#
DISCID=2c043004
DTITLE=Faith Evans - You Used To Love Me
DYEAR=1995
DGENRE=
TTITLE0=Album Version
TTITLE1=Ali Mix
TTITLE2=Puff Daddy Mix
TTITLE3=Club I Mix
EXTD=
EXTT0=
EXTT1=
EXTT2=
EXTT3=
PLAYORDER=
